<?xml version="1.0" encoding="UTF-8" standalone="no"?>
<!-- Created with Inkscape (http://www.inkscape.org/) -->

<svg
   width="78.595718mm"
   height="78.596237mm"
   viewBox="0 0 78.595718 78.596237"
   version="1.1"
   id="svg1"
   xml:space="preserve"
   xmlns="http://www.w3.org/2000/svg"
   xmlns:svg="http://www.w3.org/2000/svg"><defs
     id="defs1" /><g
     id="layer1"
     transform="translate(50.928159,87.165741)"><path
       id="path4"
       style="fill:#ffffff;stroke-linecap:round;stroke-linejoin:round;paint-order:stroke fill markers"
       d="m -11.630298,-87.165739 a 39.298019,39.298019 0 0 0 -39.29786,39.29786 39.298019,39.298019 0 0 0 39.29786,39.2983762 39.298019,39.298019 0 0 0 39.29786,-39.2983762 39.298019,39.298019 0 0 0 -39.29786,-39.29786 z m 5.6249798,15.982487 a 0.69510987,0.69510987 0 0 1 0.1803508,0.02015 0.69510987,0.69510987 0 0 1 0.5079793,0.841809 l -4.0509155,16.364376 a 0.69510987,0.69510987 0 0 1 -0.8418094,0.506946 0.69510987,0.69510987 0 0 1 -0.507979,-0.84181 l 4.0509155,-16.363342 a 0.69510987,0.69510987 0 0 1 0.6614583,-0.528133 z m -9.2929728,0.5271 a 0.69510987,0.69510987 0 0 1 0.180867,0.01809 0.69510987,0.69510987 0 0 1 0.517282,0.836642 l -1.674317,7.112744 a 0.69510987,0.69510987 0 0 1 -0.836641,0.517798 0.69510987,0.69510987 0 0 1 -0.517281,-0.836642 l 1.67535,-7.112227 a 0.69510987,0.69510987 0 0 1 0.65474,-0.536401 z m -9.407695,1.405599 a 0.69510987,0.69510987 0 0 1 0.180868,0.01705 0.69510987,0.69510987 0 0 1 0.522449,0.833541 l -0.877466,3.827156 a 0.69510987,0.69510987 0 0 1 -0.832507,0.522966 0.69510987,0.69510987 0 0 1 -0.523483,-0.833541 l 0.877466,-3.827673 a 0.69510987,0.69510987 0 0 1 0.652673,-0.539502 z m 4.2292,1.800407 a 0.69510987,0.69510987 0 0 1 0.180867,0.01447 0.69510987,0.69510987 0 0 1 0.534335,0.824239 l -0.654741,3.061829 a 0.69510987,0.69510987 0 0 1 -0.825272,0.534334 0.69510987,0.69510987 0 0 1 -0.534335,-0.825789 l 0.654224,-3.060279 a 0.69510987,0.69510987 0 0 1 0.644922,-0.548803 z m 8.267712,3.036507 a 0.69510987,0.69510987 0 0 1 0.180868,0.01809 0.69510987,0.69510987 0 0 1 0.517797,0.836642 l -1.322916,5.623429 a 0.69510987,0.69510987 0 0 1 -0.835608,0.516765 0.69510987,0.69510987 0 0 1 -0.518315,-0.835608 l 1.323434,-5.62343 a 0.69510987,0.69510987 0 0 1 0.65474,-0.535884 z m 18.0014853,0.166915 a 0.69510987,0.69510987 0 0 1 0.1803507,0.02119 0.69510987,0.69510987 0 0 1 0.5059123,0.843876 l -1.2929443,5.16609 a 0.69510987,0.69510987 0 0 1 -0.8438762,0.504879 0.69510987,0.69510987 0 0 1 -0.5043619,-0.842843 l 1.291394,-5.166093 a 0.69510987,0.69510987 0 0 1 0.6635254,-0.527099 z m -4.6586304,0.429431 a 0.69510987,0.69510987 0 0 1 0.1803508,0.02015 0.69510987,0.69510987 0 0 1 0.5090128,0.840775 l -0.90898841,3.699516 a 0.69510987,0.69510987 0 0 1 -0.84077556,0.509013 0.69510987,0.69510987 0 0 1 -0.50901285,-0.840776 l 0.90898844,-3.699516 a 0.69510987,0.69510987 0 0 1 0.66042478,-0.529166 z m -27.9409299,1.028877 9.098152,1.956987 6.360336,12.736173 10.72182588,-9.281604 8.73693442,2.1146 -6.5613566,30.310295 -8.775175,-1.775086 3.8101034,-17.865059 -10.6272581,9.434566 -6.599597,-13.118062 -3.747575,17.775659 -8.88783,-2.04587 z m 23.127787,0.05529 a 0.69510987,0.69510987 0 0 1 0.1803508,0.02015 0.69510987,0.69510987 0 0 1 0.5100464,0.840259 l -1.4505575,5.911784 a 0.69510987,0.69510987 0 0 1 -0.8407756,0.509013 0.69510987,0.69510987 0 0 1 -0.5100463,-0.840776 l 1.4505574,-5.91075 a 0.69510987,0.69510987 0 0 1 0.6604248,-0.529684 z m 13.3883301,1.083138 a 0.69510987,0.69510987 0 0 1 0.1803507,0.01964 0.69510987,0.69510987 0 0 1 0.5084962,0.840776 l -0.9084717,3.699516 a 0.69510987,0.69510987 0 0 1 -0.8407756,0.510046 0.69510987,0.69510987 0 0 1 -0.5100464,-0.840776 l 0.910022,-3.700549 a 0.69510987,0.69510987 0 0 1 0.6604248,-0.52865 z" /></g></svg>
