<?xml version="1.0" encoding="UTF-8" standalone="no"?>
<!-- Created with Inkscape (http://www.inkscape.org/) -->

<svg
   width="165.7856mm"
   height="46.727345mm"
   viewBox="0 0 165.7856 46.727345"
   version="1.1"
   id="svg1"
   xml:space="preserve"
   xmlns="http://www.w3.org/2000/svg"
   xmlns:svg="http://www.w3.org/2000/svg"><defs
     id="defs1" /><g
     id="layer1"
     transform="translate(-1.6374307,-45.096419)"><g
       id="g2"
       transform="matrix(-0.52111878,0,0,0.52111878,85.880922,-1.1313931)"
       style="fill:#ffffff;stroke:#ffffff"><path
         style="font-weight:bold;font-size:88.2022px;font-family:Geist;-inkscape-font-specification:'Geist Bold';text-align:end;text-anchor:end;fill:#ffffff;stroke:#ffffff;stroke-width:1.53516;stroke-linecap:round;stroke-linejoin:round;stroke-dasharray:none;paint-order:stroke fill markers"
         d="m 52.363429,193.86832 0.622932,-59.5078 17.248965,-0.23802 16.110977,21.93011 17.322217,-21.12404 17.85705,0.21103 -0.76295,59.34278 -17.50083,0.0453 0.55322,-34.85639 -17.931936,21.7373 v 0 L 70.01278,159.23194 69.538021,194.2815 Z"
         id="text1"
         transform="rotate(-12.81494)"
         aria-label="M" /><path
         style="fill:#ffffff;stroke:#ffffff;stroke-width:2.66776;stroke-linecap:round;stroke-linejoin:round;stroke-dasharray:none;paint-order:stroke fill markers"
         d="m 78.373554,108.33586 1.744538,7.10057 v 0"
         id="path1" /><path
         style="fill:#ffffff;stroke:#ffffff;stroke-width:2.66776;stroke-linecap:round;stroke-linejoin:round;stroke-dasharray:none;paint-order:stroke fill markers"
         d="m 85.894575,103.35535 2.480355,9.91399 v 0"
         id="path1-5" /><path
         style="fill:#ffffff;stroke:#ffffff;stroke-width:2.66776;stroke-linecap:round;stroke-linejoin:round;stroke-dasharray:none;paint-order:stroke fill markers"
         d="m 94.827592,104.17724 1.744538,7.10057 v 0"
         id="path1-1" /><path
         style="fill:#ffffff;stroke:#ffffff;stroke-width:2.66776;stroke-linecap:round;stroke-linejoin:round;stroke-dasharray:none;paint-order:stroke fill markers"
         d="m 104.06359,106.25905 2.78334,11.34234 v 0"
         id="path1-14" /><path
         style="fill:#ffffff;stroke:#ffffff;stroke-width:2.66776;stroke-linecap:round;stroke-linejoin:round;stroke-dasharray:none;paint-order:stroke fill markers"
         d="m 146.07592,101.09729 -1.68333,-7.345422"
         id="path1-16" /><path
         style="fill:#ffffff;stroke:#ffffff;stroke-width:2.66776;stroke-linecap:round;stroke-linejoin:round;stroke-dasharray:none;paint-order:stroke fill markers"
         d="m 137.51429,103.07842 -1.25611,-5.874012"
         id="path1-5-8" /><path
         style="fill:#ffffff;stroke:#ffffff;stroke-width:2.66776;stroke-linecap:round;stroke-linejoin:round;stroke-dasharray:none;paint-order:stroke fill markers"
         d="M 129.56067,104.705 126.34705,91.054759"
         id="path1-1-5" /><path
         style="fill:#ffffff;stroke:#ffffff;stroke-width:2.66776;stroke-linecap:round;stroke-linejoin:round;stroke-dasharray:none;paint-order:stroke fill markers"
         d="m 122.95678,113.82496 -2.53849,-10.79143"
         id="path1-14-7" /><path
         style="fill:#ffffff;stroke:#ffffff;stroke-width:2.66776;stroke-linecap:round;stroke-linejoin:round;stroke-dasharray:none;paint-order:stroke fill markers"
         d="m 108.52865,90.042663 7.7739,31.401687"
         id="path2" /></g><path
       style="font-weight:bold;font-size:25.4px;line-height:1.1;font-family:'Segoe UI Variable';-inkscape-font-specification:'Segoe UI Variable Bold';text-align:end;letter-spacing:0.690562px;text-anchor:end;fill:#ffffff;stroke:#ffffff;stroke-linecap:round;stroke-linejoin:round;paint-order:stroke fill markers"
       d="m 41.869218,91.013702 6.374805,-17.78496 h 4.750097 l 6.225977,17.78496 H 55.0033 L 53.775468,87.45423 h -6.523633 l -1.203027,3.559472 z m 6.300391,-6.833691 h 4.650879 l -1.897559,-6.213574 q -0.09922,-0.334863 -0.186035,-0.607715 -0.08682,-0.285254 -0.173633,-0.657324 h -0.09922 q -0.07441,0.310059 -0.16123,0.607715 -0.08682,0.297656 -0.198438,0.644922 z m 28.298177,6.833691 h -4.50205 l -2.6417,-4.812109 q -0.5333,-0.979785 -1.029394,-1.389062 -0.483691,-0.409278 -1.190625,-0.409278 h -1.079004 v 6.610449 h -4.005957 v -17.78496 h 6.35 q 3.311426,0 4.886523,1.37666 1.5875,1.37666 1.5875,3.671094 0,1.674316 -0.992187,3.050976 -0.992188,1.364258 -2.778125,1.885156 v 0.04961 q 0.682129,0.272851 1.277441,0.917773 0.595313,0.63252 1.252637,1.773535 z M 66.025013,76.279718 v 5.047754 h 1.736328 q 1.37666,0 2.120801,-0.719336 0.744141,-0.731738 0.744141,-1.934765 0,-1.153418 -0.694532,-1.773536 -0.694531,-0.620117 -2.095996,-0.620117 z m 27.963315,14.733984 h -4.998144 l -5.18418,-7.478613 q -0.111621,-0.16123 -0.21084,-0.334863 -0.09922,-0.186035 -0.260449,-0.446484 h -0.06201 v 8.25996 h -4.005957 v -17.78496 h 4.005957 v 7.949902 h 0.06201 q 0.08682,-0.161231 0.198438,-0.347266 0.124023,-0.186035 0.297656,-0.446484 l 5.010547,-7.156152 h 4.55166 l -6.114356,8.383984 z m 2.798964,0 v -17.78496 h 6.300388 q 4.7377,0 7.10655,2.17041 2.36884,2.158008 2.36884,6.498828 0,4.154785 -2.59209,6.635254 -2.57968,2.480468 -6.8833,2.480468 z M 100.79325,76.55257 v 11.137304 h 1.98437 q 2.6045,0 4.08038,-1.53789 1.48828,-1.550293 1.48828,-4.204395 0,-2.517675 -1.47588,-3.956347 -1.46348,-1.438672 -4.11758,-1.438672 z m 29.61282,14.461132 h -4.50205 l -2.6417,-4.812109 q -0.5333,-0.979785 -1.02939,-1.389062 -0.48369,-0.409278 -1.19063,-0.409278 h -1.079 v 6.610449 h -4.00596 v -17.78496 h 6.35 q 3.31143,0 4.88653,1.37666 1.5875,1.37666 1.5875,3.671094 0,1.674316 -0.99219,3.050976 -0.99219,1.364258 -2.77813,1.885156 v 0.04961 q 0.68213,0.272851 1.27745,0.917773 0.59531,0.63252 1.25263,1.773535 z M 119.9633,76.279718 v 5.047754 h 1.73633 q 1.37666,0 2.1208,-0.719336 0.74414,-0.731738 0.74414,-1.934765 0,-1.153418 -0.69453,-1.773536 -0.69453,-0.620117 -2.096,-0.620117 z m 21.62572,15.044043 q -3.84473,0 -6.31279,-2.480469 -2.46807,-2.492871 -2.46807,-6.486425 0,-4.216797 2.50527,-6.821289 2.50528,-2.604493 6.56084,-2.604493 3.83233,0 6.23838,2.492872 2.41846,2.492871 2.41846,6.573242 0,4.191992 -2.50528,6.759277 -2.49287,2.567285 -6.43681,2.567285 z m 0.0744,-3.509863 q 2.096,0 3.37344,-1.475879 1.27744,-1.488281 1.27744,-4.117578 0,-2.740918 -1.24023,-4.266406 -1.24024,-1.525489 -3.31143,-1.525489 -2.1332,0 -3.43545,1.575098 -1.30224,1.562695 -1.30224,4.142383 0,2.616894 1.30224,4.142382 1.30225,1.525489 3.33623,1.525489 z m 16.26791,-2.59209 v 5.791894 h -4.00596 v -17.78496 h 6.18877 q 3.32383,0 5.06016,1.451074 1.74873,1.451074 1.74873,4.291211 0,2.951758 -1.95957,4.601269 -1.94717,1.649512 -5.23379,1.649512 z m 0,-8.917285 v 5.841504 h 1.67432 q 1.48828,0 2.29443,-0.781348 0.80615,-0.781348 0.80615,-2.244824 0,-1.351856 -0.79375,-2.083594 -0.78134,-0.731738 -2.24482,-0.731738 z"
       id="text3"
       aria-label="ARKDROP" /></g></svg>
